<mxfile host="app.diagrams.net" modified="2023-04-23T04:37:14.397Z" agent="Mozilla/5.0 (X11; Linux x86_64) AppleWebKit/537.36 (KHTML, like Gecko) Chrome/112.0.0.0 Safari/537.36" version="21.2.1" etag="e-RwqP9tZT-bNNt6KyQa" type="github">
  <diagram name="Page-1" id="Ld-5eVl1xDIEoAfiGf-z">
    <mxGraphModel>
      <root>
        <mxCell id="0" />
        <mxCell id="1" parent="0" />
      </root>
    </mxGraphModel>
  </diagram>
</mxfile>
